<?xml version="1.0" encoding="UTF-8" standalone="no"?>
<!DOCTYPE svg PUBLIC "-//W3C//DTD SVG 1.1//EN"
 "http://www.w3.org/Graphics/SVG/1.1/DTD/svg11.dtd">
<!-- Generated by graphviz version 2.48.0 (0)
 -->
<!-- Title: G Pages: 1 -->
<svg width="282pt" height="544pt"
 viewBox="0.00 0.00 282.05 543.95" xmlns="http://www.w3.org/2000/svg" xmlns:xlink="http://www.w3.org/1999/xlink">
<g id="graph0" class="graph" transform="scale(1 1) rotate(0) translate(4 539.95)">
<title>G</title><style>.edge>path:hover{stroke-width:8}</style>
<polygon fill="white" stroke="transparent" points="-4,4 -4,-539.95 278.05,-539.95 278.05,4 -4,4"/>
<!-- app_db -->
<g id="node1" class="node">
<title>app_db</title><style>.edge>path:hover{stroke-width:8}</style>
<ellipse fill="#c24747" stroke="black" cx="174.08" cy="-325.96" rx="29.37" ry="18"/>
<text text-anchor="middle" x="174.08" y="-323.46" font-family="Helvetica,sans-Serif" font-size="10.00" fill="#ffffff">app.db</text>
</g>
<!-- app_models_item -->
<g id="node4" class="node">
<title>app_models_item</title><style>.edge>path:hover{stroke-width:8}</style>
<ellipse fill="#993333" stroke="black" cx="120.08" cy="-194.97" rx="39.7" ry="28.98"/>
<text text-anchor="middle" x="120.08" y="-203.47" font-family="Helvetica,sans-Serif" font-size="10.00" fill="#ffffff">app.</text>
<text text-anchor="middle" x="120.08" y="-192.47" font-family="Helvetica,sans-Serif" font-size="10.00" fill="#ffffff">models.</text>
<text text-anchor="middle" x="120.08" y="-181.47" font-family="Helvetica,sans-Serif" font-size="10.00" fill="#ffffff">item</text>
</g>
<!-- app_db&#45;&gt;app_models_item -->
<g id="edge1" class="edge">
<title>app_db&#45;&gt;app_models_item</title><style>.edge>path:hover{stroke-width:8}</style>
<path fill="none" stroke="black" d="M156,-311.6C149.48,-306.88 142.01,-301.6 135.08,-296.97 109.85,-280.11 69.88,-290.44 77.08,-260.97"/>
</g>
<!-- app_models_user -->
<g id="node5" class="node">
<title>app_models_user</title><style>.edge>path:hover{stroke-width:8}</style>
<ellipse fill="#a32828" stroke="black" cx="188.08" cy="-100.99" rx="39.7" ry="28.98"/>
<text text-anchor="middle" x="188.08" y="-109.49" font-family="Helvetica,sans-Serif" font-size="10.00" fill="#ffffff">app.</text>
<text text-anchor="middle" x="188.08" y="-98.49" font-family="Helvetica,sans-Serif" font-size="10.00" fill="#ffffff">models.</text>
<text text-anchor="middle" x="188.08" y="-87.49" font-family="Helvetica,sans-Serif" font-size="10.00" fill="#ffffff">user</text>
</g>
<!-- app_db&#45;&gt;app_models_user -->
<g id="edge2" class="edge">
<title>app_db&#45;&gt;app_models_user</title><style>.edge>path:hover{stroke-width:8}</style>
<path fill="none" stroke="black" d="M191.26,-311.18C204.62,-299.39 222.29,-281.16 231.08,-260.97"/>
</g>
<!-- app_db_base_class -->
<g id="node2" class="node">
<title>app_db_base_class</title><style>.edge>path:hover{stroke-width:8}</style>
<ellipse fill="#c04040" stroke="black" cx="77.08" cy="-325.96" rx="49.49" ry="28.98"/>
<text text-anchor="middle" x="77.08" y="-334.46" font-family="Helvetica,sans-Serif" font-size="10.00" fill="#ffffff">app.</text>
<text text-anchor="middle" x="77.08" y="-323.46" font-family="Helvetica,sans-Serif" font-size="10.00" fill="#ffffff">db.</text>
<text text-anchor="middle" x="77.08" y="-312.46" font-family="Helvetica,sans-Serif" font-size="10.00" fill="#ffffff">base_class</text>
</g>
<!-- app_db_base_class&#45;&gt;app_models_item -->
<g id="edge3" class="edge">
<title>app_db_base_class&#45;&gt;app_models_item</title><style>.edge>path:hover{stroke-width:8}</style>
<path fill="none" stroke="black" d="M74.21,-296.89C73.79,-285.59 74.26,-272.51 77.08,-260.97"/>
</g>
<!-- app_db_base_class&#45;&gt;app_models_user -->
<g id="edge4" class="edge">
<title>app_db_base_class&#45;&gt;app_models_user</title><style>.edge>path:hover{stroke-width:8}</style>
<path fill="none" stroke="black" d="M114.33,-306.73C121.5,-303.38 128.99,-299.99 136.08,-296.97 177.62,-279.27 213.06,-302.37 231.08,-260.97"/>
<path fill="none" stroke="black" d="M231.08,-259.97C248.91,-218.99 228.63,-168.76 210.31,-136.1"/>
<polygon fill="#c04040" stroke="black" points="213.29,-134.26 205.23,-127.38 207.24,-137.78 213.29,-134.26"/>
</g>
<!-- app_models -->
<g id="node3" class="node">
<title>app_models</title><style>.edge>path:hover{stroke-width:8}</style>
<ellipse fill="#ac4949" stroke="black" cx="154.08" cy="-18" rx="43.62" ry="18"/>
<text text-anchor="middle" x="154.08" y="-15.5" font-family="Helvetica,sans-Serif" font-size="10.00" fill="#ffffff">app.models</text>
</g>
<!-- app_models_item&#45;&gt;app_models -->
<g id="edge5" class="edge">
<title>app_models_item&#45;&gt;app_models</title><style>.edge>path:hover{stroke-width:8}</style>
<path fill="none" stroke="black" d="M123.5,-165.7C126.73,-140.86 132.13,-103.82 139.08,-72 140.97,-63.37 143.45,-54.06 145.85,-45.69"/>
<polygon fill="#993333" stroke="black" points="149.22,-46.63 148.69,-36.05 142.5,-44.66 149.22,-46.63"/>
</g>
<!-- app_models_item&#45;&gt;app_models_user -->
<g id="edge6" class="edge">
<title>app_models_item&#45;&gt;app_models_user</title><style>.edge>path:hover{stroke-width:8}</style>
<path fill="none" stroke="black" d="M144.78,-160.56C150.97,-152.19 157.61,-143.21 163.78,-134.87"/>
<polygon fill="#993333" stroke="black" points="141.79,-158.72 138.66,-168.84 147.42,-162.88 141.79,-158.72"/>
<polygon fill="#993333" stroke="black" points="166.63,-136.9 169.76,-126.78 161,-132.74 166.63,-136.9"/>
</g>
<!-- app_models_user&#45;&gt;app_models -->
<g id="edge7" class="edge">
<title>app_models_user&#45;&gt;app_models</title><style>.edge>path:hover{stroke-width:8}</style>
<path fill="none" stroke="black" d="M176.76,-73.02C173.05,-64.2 168.94,-54.4 165.25,-45.6"/>
<polygon fill="#a32828" stroke="black" points="168.4,-44.06 161.3,-36.19 161.94,-46.77 168.4,-44.06"/>
</g>
<!-- sqlalchemy -->
<g id="node6" class="node">
<title>sqlalchemy</title><style>.edge>path:hover{stroke-width:8}</style>
<ellipse fill="#19e6e6" stroke="black" cx="231.08" cy="-517.95" rx="42.94" ry="18"/>
<text text-anchor="middle" x="231.08" y="-515.45" font-family="Helvetica,sans-Serif" font-size="10.00" fill="#000000">sqlalchemy</text>
</g>
<!-- sqlalchemy&#45;&gt;app_db_base_class -->
<g id="edge9" class="edge">
<title>sqlalchemy&#45;&gt;app_db_base_class</title><style>.edge>path:hover{stroke-width:8}</style>
<path fill="none" stroke="black" d="M65.08,-407.95C53.64,-396.41 54.81,-379.04 59.6,-363.33"/>
<polygon fill="#19e6e6" stroke="black" points="62.93,-364.43 62.98,-353.84 56.33,-362.09 62.93,-364.43"/>
</g>
<!-- sqlalchemy&#45;&gt;app_models_item -->
<g id="edge10" class="edge">
<title>sqlalchemy&#45;&gt;app_models_item</title><style>.edge>path:hover{stroke-width:8}</style>
<path fill="none" stroke="black" d="M235.07,-499.7C236.66,-488.81 236.94,-474.8 231.08,-463.95"/>
<path fill="none" stroke="black" d="M231.08,-462.95C199.13,-403.75 143.59,-458.31 84.08,-426.95 74.06,-421.67 73.06,-417.99 65.08,-409.95"/>
<path fill="none" stroke="black" d="M65.08,-407.95C32.58,-375.18 1.07,-373.1 0.08,-326.96"/>
<path fill="none" stroke="black" d="M0.08,-324.96C-0.24,-309.92 8.23,-307.38 19.08,-296.97 40.97,-275.95 69.88,-290.44 77.08,-260.97"/>
<path fill="none" stroke="black" d="M77.08,-259.97C79.88,-248.5 85.86,-237.34 92.48,-227.64"/>
<polygon fill="#19e6e6" stroke="black" points="95.34,-229.66 98.41,-219.52 89.69,-225.53 95.34,-229.66"/>
</g>
<!-- sqlalchemy&#45;&gt;app_models_user -->
<g id="edge11" class="edge">
<title>sqlalchemy&#45;&gt;app_models_user</title><style>.edge>path:hover{stroke-width:8}</style>
<path fill="none" stroke="black" d="M231.08,-462.95C202.38,-409.76 217.19,-385.78 231.08,-326.96"/>
</g>
<!-- sqlalchemy_orm -->
<g id="node7" class="node">
<title>sqlalchemy_orm</title><style>.edge>path:hover{stroke-width:8}</style>
<ellipse fill="#31c4c4" stroke="black" cx="148.08" cy="-408.95" rx="55.17" ry="18"/>
<text text-anchor="middle" x="148.08" y="-406.45" font-family="Helvetica,sans-Serif" font-size="10.00" fill="#000000">sqlalchemy.orm</text>
</g>
<!-- sqlalchemy_orm&#45;&gt;app_models_item -->
<g id="edge12" class="edge">
<title>sqlalchemy_orm&#45;&gt;app_models_item</title><style>.edge>path:hover{stroke-width:8}</style>
<path fill="none" stroke="black" d="M105.57,-397.34C78.68,-389.07 44.36,-375.48 19.08,-354.95 7.41,-345.47 0.4,-341.99 0.08,-326.96"/>
</g>
<!-- sqlalchemy_orm&#45;&gt;app_models_user -->
<g id="edge13" class="edge">
<title>sqlalchemy_orm&#45;&gt;app_models_user</title><style>.edge>path:hover{stroke-width:8}</style>
<path fill="none" stroke="black" d="M174.99,-393.18C196.47,-379.41 224.1,-356.54 231.08,-326.96"/>
<path fill="none" stroke="black" d="M231.08,-324.96C237.62,-297.28 219.73,-287.04 231.08,-260.97"/>
</g>
</g>
</svg>
