<?xml version="1.0" encoding="UTF-8" standalone="no"?>
<!DOCTYPE svg PUBLIC "-//W3C//DTD SVG 1.1//EN"
 "http://www.w3.org/Graphics/SVG/1.1/DTD/svg11.dtd">
<!-- Generated by graphviz version 2.48.0 (0)
 -->
<!-- Title: G Pages: 1 -->
<svg width="841pt" height="466pt"
 viewBox="0.00 0.00 840.72 466.06" xmlns="http://www.w3.org/2000/svg" xmlns:xlink="http://www.w3.org/1999/xlink">
<g id="graph0" class="graph" transform="scale(1 1) rotate(0) translate(4 462.06)">
<title>G</title><style>.edge>path:hover{stroke-width:8}</style>
<polygon fill="white" stroke="transparent" points="-4,4 -4,-462.06 836.72,-462.06 836.72,4 -4,4"/>
<!-- app_api_api_v1_endpoints_login -->
<g id="node1" class="node">
<title>app_api_api_v1_endpoints_login</title><style>.edge>path:hover{stroke-width:8}</style>
<ellipse fill="#6b2e2e" stroke="black" cx="510.75" cy="-44.55" rx="48.17" ry="44.6"/>
<text text-anchor="middle" x="510.75" y="-64.05" font-family="Helvetica,sans-Serif" font-size="10.00" fill="#ffffff">app.</text>
<text text-anchor="middle" x="510.75" y="-53.05" font-family="Helvetica,sans-Serif" font-size="10.00" fill="#ffffff">api.</text>
<text text-anchor="middle" x="510.75" y="-42.05" font-family="Helvetica,sans-Serif" font-size="10.00" fill="#ffffff">api_v1.</text>
<text text-anchor="middle" x="510.75" y="-31.05" font-family="Helvetica,sans-Serif" font-size="10.00" fill="#ffffff">endpoints.</text>
<text text-anchor="middle" x="510.75" y="-20.05" font-family="Helvetica,sans-Serif" font-size="10.00" fill="#ffffff">login</text>
</g>
<!-- app_api_deps -->
<g id="node2" class="node">
<title>app_api_deps</title><style>.edge>path:hover{stroke-width:8}</style>
<ellipse fill="#6b2e2e" stroke="black" cx="510.75" cy="-180.1" rx="46.51" ry="18"/>
<text text-anchor="middle" x="510.75" y="-177.6" font-family="Helvetica,sans-Serif" font-size="10.00" fill="#ffffff">app.api.deps</text>
</g>
<!-- app_api_deps&#45;&gt;app_api_api_v1_endpoints_login -->
<g id="edge1" class="edge">
<title>app_api_deps&#45;&gt;app_api_api_v1_endpoints_login</title><style>.edge>path:hover{stroke-width:8}</style>
<path fill="none" stroke="black" d="M507.81,-161.87C506.71,-151.24 506.58,-137.5 510.75,-126.1"/>
</g>
<!-- app_core -->
<g id="node3" class="node">
<title>app_core</title><style>.edge>path:hover{stroke-width:8}</style>
<ellipse fill="#db2f2f" stroke="black" cx="53.75" cy="-335.09" rx="34.96" ry="18"/>
<text text-anchor="middle" x="53.75" y="-332.59" font-family="Helvetica,sans-Serif" font-size="10.00" fill="#ffffff">app.core</text>
</g>
<!-- app_core&#45;&gt;app_api_api_v1_endpoints_login -->
<g id="edge2" class="edge">
<title>app_core&#45;&gt;app_api_api_v1_endpoints_login</title><style>.edge>path:hover{stroke-width:8}</style>
<path fill="none" stroke="black" d="M64.59,-317.98C76.41,-300.97 96.38,-273.79 116.75,-253.1"/>
<path fill="none" stroke="black" d="M116.75,-251.1C177.25,-189.63 217.04,-211.51 297.75,-181.1"/>
</g>
<!-- app_core&#45;&gt;app_api_deps -->
<g id="edge3" class="edge">
<title>app_core&#45;&gt;app_api_deps</title><style>.edge>path:hover{stroke-width:8}</style>
<path fill="none" stroke="black" d="M81.82,-324.45C97.64,-319.03 117.79,-312.15 135.75,-306.1 255.37,-265.74 396.7,-218.84 466.78,-195.64"/>
<polygon fill="#db2f2f" stroke="black" points="468.2,-198.85 476.6,-192.39 466,-192.21 468.2,-198.85"/>
</g>
<!-- app_utils -->
<g id="node9" class="node">
<title>app_utils</title><style>.edge>path:hover{stroke-width:8}</style>
<ellipse fill="#a44646" stroke="black" cx="53.75" cy="-252.1" rx="34.96" ry="18"/>
<text text-anchor="middle" x="53.75" y="-249.6" font-family="Helvetica,sans-Serif" font-size="10.00" fill="#ffffff">app.utils</text>
</g>
<!-- app_core&#45;&gt;app_utils -->
<g id="edge4" class="edge">
<title>app_core&#45;&gt;app_utils</title><style>.edge>path:hover{stroke-width:8}</style>
<path fill="none" stroke="black" d="M53.75,-316.91C53.75,-306.28 53.75,-292.4 53.75,-280.3"/>
<polygon fill="#db2f2f" stroke="black" points="57.25,-280.25 53.75,-270.25 50.25,-280.25 57.25,-280.25"/>
</g>
<!-- app_core_config -->
<g id="node4" class="node">
<title>app_core_config</title><style>.edge>path:hover{stroke-width:8}</style>
<ellipse fill="#db2f2f" stroke="black" cx="285.75" cy="-429.07" rx="32.55" ry="28.98"/>
<text text-anchor="middle" x="285.75" y="-437.57" font-family="Helvetica,sans-Serif" font-size="10.00" fill="#ffffff">app.</text>
<text text-anchor="middle" x="285.75" y="-426.57" font-family="Helvetica,sans-Serif" font-size="10.00" fill="#ffffff">core.</text>
<text text-anchor="middle" x="285.75" y="-415.57" font-family="Helvetica,sans-Serif" font-size="10.00" fill="#ffffff">config</text>
</g>
<!-- app_core_config&#45;&gt;app_api_api_v1_endpoints_login -->
<g id="edge5" class="edge">
<title>app_core_config&#45;&gt;app_api_api_v1_endpoints_login</title><style>.edge>path:hover{stroke-width:8}</style>
<path fill="none" stroke="black" d="M253.65,-423.52C218.98,-416.82 164.79,-400.85 135.75,-364.08 104.73,-324.81 81.64,-288.76 116.75,-253.1"/>
</g>
<!-- app_core_config&#45;&gt;app_api_deps -->
<g id="edge6" class="edge">
<title>app_core_config&#45;&gt;app_api_deps</title><style>.edge>path:hover{stroke-width:8}</style>
<path fill="none" stroke="black" d="M308.82,-408.08C332.38,-386.71 365.56,-353.55 365.75,-336.09"/>
<path fill="none" stroke="black" d="M365.75,-334.09C366.18,-294.7 375.74,-282.68 401.75,-253.1"/>
</g>
<!-- app_core_security -->
<g id="node5" class="node">
<title>app_core_security</title><style>.edge>path:hover{stroke-width:8}</style>
<ellipse fill="#b03a3a" stroke="black" cx="297.75" cy="-335.09" rx="39.7" ry="28.98"/>
<text text-anchor="middle" x="297.75" y="-343.59" font-family="Helvetica,sans-Serif" font-size="10.00" fill="#ffffff">app.</text>
<text text-anchor="middle" x="297.75" y="-332.59" font-family="Helvetica,sans-Serif" font-size="10.00" fill="#ffffff">core.</text>
<text text-anchor="middle" x="297.75" y="-321.59" font-family="Helvetica,sans-Serif" font-size="10.00" fill="#ffffff">security</text>
</g>
<!-- app_core_config&#45;&gt;app_core_security -->
<g id="edge7" class="edge">
<title>app_core_config&#45;&gt;app_core_security</title><style>.edge>path:hover{stroke-width:8}</style>
<path fill="none" stroke="black" d="M289.41,-399.97C290.48,-391.77 291.67,-382.67 292.81,-373.97"/>
<polygon fill="#db2f2f" stroke="black" points="296.28,-374.38 294.11,-364.01 289.34,-373.48 296.28,-374.38"/>
</g>
<!-- app_core_config&#45;&gt;app_utils -->
<g id="edge8" class="edge">
<title>app_core_config&#45;&gt;app_utils</title><style>.edge>path:hover{stroke-width:8}</style>
<path fill="none" stroke="black" d="M253.33,-425.48C187.08,-419.46 39.89,-402.01 9.75,-364.08 -6.28,-343.9 1,-330.33 9.75,-306.1 13.85,-294.73 21.57,-284.08 29.42,-275.35"/>
<polygon fill="#db2f2f" stroke="black" points="32.16,-277.54 36.55,-267.9 27.11,-272.7 32.16,-277.54"/>
</g>
<!-- app_core_security&#45;&gt;app_api_api_v1_endpoints_login -->
<g id="edge9" class="edge">
<title>app_core_security&#45;&gt;app_api_api_v1_endpoints_login</title><style>.edge>path:hover{stroke-width:8}</style>
<path fill="none" stroke="black" d="M293.96,-306.18C292.74,-290.31 292.78,-270.25 297.75,-253.1"/>
</g>
<!-- app_core_security&#45;&gt;app_api_deps -->
<g id="edge10" class="edge">
<title>app_core_security&#45;&gt;app_api_deps</title><style>.edge>path:hover{stroke-width:8}</style>
<path fill="none" stroke="black" d="M327.53,-315.33C349.77,-300.34 379.95,-277.81 401.75,-253.1"/>
</g>
<!-- app_crud -->
<g id="node6" class="node">
<title>app_crud</title><style>.edge>path:hover{stroke-width:8}</style>
<ellipse fill="#c24747" stroke="black" cx="610.75" cy="-335.09" rx="34.96" ry="18"/>
<text text-anchor="middle" x="610.75" y="-332.59" font-family="Helvetica,sans-Serif" font-size="10.00" fill="#ffffff">app.crud</text>
</g>
<!-- app_crud&#45;&gt;app_api_api_v1_endpoints_login -->
<g id="edge11" class="edge">
<title>app_crud&#45;&gt;app_api_api_v1_endpoints_login</title><style>.edge>path:hover{stroke-width:8}</style>
<path fill="none" stroke="black" d="M585.75,-251.1C574.02,-222.28 599.36,-209.07 585.75,-181.1"/>
</g>
<!-- app_crud&#45;&gt;app_api_deps -->
<g id="edge12" class="edge">
<title>app_crud&#45;&gt;app_api_deps</title><style>.edge>path:hover{stroke-width:8}</style>
<path fill="none" stroke="black" d="M606.41,-317.04C601.98,-300.44 594.51,-274.63 585.75,-253.1"/>
<path fill="none" stroke="black" d="M585.75,-251.1C577.46,-230.72 559.72,-213.72 543.57,-201.57"/>
<polygon fill="#c24747" stroke="black" points="545.5,-198.65 535.33,-195.67 541.43,-204.34 545.5,-198.65"/>
</g>
<!-- app_models -->
<g id="node7" class="node">
<title>app_models</title><style>.edge>path:hover{stroke-width:8}</style>
<ellipse fill="#c24747" stroke="black" cx="437.75" cy="-335.09" rx="43.62" ry="18"/>
<text text-anchor="middle" x="437.75" y="-332.59" font-family="Helvetica,sans-Serif" font-size="10.00" fill="#ffffff">app.models</text>
</g>
<!-- app_models&#45;&gt;app_api_api_v1_endpoints_login -->
<g id="edge13" class="edge">
<title>app_models&#45;&gt;app_api_api_v1_endpoints_login</title><style>.edge>path:hover{stroke-width:8}</style>
<path fill="none" stroke="black" d="M459.21,-319.31C503.43,-287.99 599.46,-215.02 585.75,-181.1"/>
<path fill="none" stroke="black" d="M585.75,-179.1C567.9,-142.39 496.73,-164.43 510.75,-126.1"/>
</g>
<!-- app_models&#45;&gt;app_api_deps -->
<g id="edge14" class="edge">
<title>app_models&#45;&gt;app_api_deps</title><style>.edge>path:hover{stroke-width:8}</style>
<path fill="none" stroke="black" d="M421.26,-318.2C405,-300.62 384.85,-272.25 401.75,-253.1"/>
</g>
<!-- app_schemas -->
<g id="node8" class="node">
<title>app_schemas</title><style>.edge>path:hover{stroke-width:8}</style>
<ellipse fill="#c24747" stroke="black" cx="192.75" cy="-335.09" rx="47.86" ry="18"/>
<text text-anchor="middle" x="192.75" y="-332.59" font-family="Helvetica,sans-Serif" font-size="10.00" fill="#ffffff">app.schemas</text>
</g>
<!-- app_schemas&#45;&gt;app_api_api_v1_endpoints_login -->
<g id="edge15" class="edge">
<title>app_schemas&#45;&gt;app_api_api_v1_endpoints_login</title><style>.edge>path:hover{stroke-width:8}</style>
<path fill="none" stroke="black" d="M217.72,-319.64C247,-301.96 292.25,-272.06 297.75,-253.1"/>
<path fill="none" stroke="black" d="M297.75,-251.1C306.41,-221.21 268.64,-192.07 297.75,-181.1"/>
</g>
<!-- app_schemas&#45;&gt;app_api_deps -->
<g id="edge16" class="edge">
<title>app_schemas&#45;&gt;app_api_deps</title><style>.edge>path:hover{stroke-width:8}</style>
<path fill="none" stroke="black" d="M219.19,-319.98C228.42,-315.3 238.93,-310.23 248.75,-306.1 315.07,-278.17 354.14,-307.06 401.75,-253.1"/>
<path fill="none" stroke="black" d="M401.75,-251.1C421.37,-228.86 449.68,-210.96 472.54,-198.83"/>
<polygon fill="#c24747" stroke="black" points="474.35,-201.84 481.64,-194.15 471.15,-195.61 474.35,-201.84"/>
</g>
<!-- app_utils&#45;&gt;app_api_api_v1_endpoints_login -->
<g id="edge17" class="edge">
<title>app_utils&#45;&gt;app_api_api_v1_endpoints_login</title><style>.edge>path:hover{stroke-width:8}</style>
<path fill="none" stroke="black" d="M81.37,-241.14C88.32,-238.74 95.78,-236.25 102.75,-234.1 188.56,-207.58 213.71,-212.76 297.75,-181.1"/>
<path fill="none" stroke="black" d="M297.75,-179.1C343.39,-161.9 494,-171.91 510.75,-126.1"/>
<path fill="none" stroke="black" d="M510.75,-125.1C513.71,-116.98 515.23,-108.09 515.83,-99.28"/>
<polygon fill="#a44646" stroke="black" points="519.34,-99.13 516.14,-89.02 512.34,-98.91 519.34,-99.13"/>
</g>
<!-- fastapi -->
<g id="node10" class="node">
<title>fastapi</title><style>.edge>path:hover{stroke-width:8}</style>
<ellipse fill="#47c247" stroke="black" cx="365.75" cy="-429.07" rx="29.37" ry="18"/>
<text text-anchor="middle" x="365.75" y="-426.57" font-family="Helvetica,sans-Serif" font-size="10.00" fill="#000000">fastapi</text>
</g>
<!-- fastapi&#45;&gt;app_api_api_v1_endpoints_login -->
<g id="edge18" class="edge">
<title>fastapi&#45;&gt;app_api_api_v1_endpoints_login</title><style>.edge>path:hover{stroke-width:8}</style>
<path fill="none" stroke="black" d="M393.26,-422.55C463.34,-408.42 643.8,-371.51 654.75,-364.08 667.19,-355.64 672.7,-351.09 673.75,-336.09"/>
<path fill="none" stroke="black" d="M673.75,-334.09C679.21,-255.84 620.06,-251.64 585.75,-181.1"/>
</g>
<!-- fastapi&#45;&gt;app_api_deps -->
<g id="edge19" class="edge">
<title>fastapi&#45;&gt;app_api_deps</title><style>.edge>path:hover{stroke-width:8}</style>
<path fill="none" stroke="black" d="M365.64,-410.78C365.54,-392.29 365.46,-362.12 365.75,-336.09"/>
</g>
<!-- fastapi_security -->
<g id="node11" class="node">
<title>fastapi_security</title><style>.edge>path:hover{stroke-width:8}</style>
<ellipse fill="#47c247" stroke="black" cx="560.75" cy="-429.07" rx="39.7" ry="21.43"/>
<text text-anchor="middle" x="560.75" y="-432.07" font-family="Helvetica,sans-Serif" font-size="10.00" fill="#000000">fastapi.</text>
<text text-anchor="middle" x="560.75" y="-421.07" font-family="Helvetica,sans-Serif" font-size="10.00" fill="#000000">security</text>
</g>
<!-- fastapi_security&#45;&gt;app_api_api_v1_endpoints_login -->
<g id="edge20" class="edge">
<title>fastapi_security&#45;&gt;app_api_api_v1_endpoints_login</title><style>.edge>path:hover{stroke-width:8}</style>
<path fill="none" stroke="black" d="M586.78,-413.07C619.67,-393.24 672.2,-358.23 673.75,-336.09"/>
</g>
<!-- fastapi_security&#45;&gt;app_api_deps -->
<g id="edge21" class="edge">
<title>fastapi_security&#45;&gt;app_api_deps</title><style>.edge>path:hover{stroke-width:8}</style>
<path fill="none" stroke="black" d="M521.1,-426.53C463.87,-421.96 365,-404.21 365.75,-336.09"/>
</g>
<!-- sqlalchemy -->
<g id="node12" class="node">
<title>sqlalchemy</title><style>.edge>path:hover{stroke-width:8}</style>
<ellipse fill="#2626d9" stroke="black" cx="789.75" cy="-429.07" rx="42.94" ry="18"/>
<text text-anchor="middle" x="789.75" y="-426.57" font-family="Helvetica,sans-Serif" font-size="10.00" fill="#ffffff">sqlalchemy</text>
</g>
<!-- sqlalchemy&#45;&gt;app_api_api_v1_endpoints_login -->
<g id="edge22" class="edge">
<title>sqlalchemy&#45;&gt;app_api_api_v1_endpoints_login</title><style>.edge>path:hover{stroke-width:8}</style>
<path fill="none" stroke="black" d="M763.93,-414.45C728.7,-394.94 670.27,-358.89 673.75,-336.09"/>
</g>
<!-- sqlalchemy&#45;&gt;app_api_deps -->
<g id="edge23" class="edge">
<title>sqlalchemy&#45;&gt;app_api_deps</title><style>.edge>path:hover{stroke-width:8}</style>
<path fill="none" stroke="black" d="M766.6,-413.77C757.82,-408.84 747.57,-403.67 737.75,-400.08 664.81,-373.4 624.07,-416.48 566.75,-364.08 522.28,-323.42 512.71,-248.53 510.91,-208.31"/>
<polygon fill="#2626d9" stroke="black" points="514.41,-208.07 510.59,-198.18 507.41,-208.29 514.41,-208.07"/>
</g>
<!-- sqlalchemy_orm -->
<g id="node13" class="node">
<title>sqlalchemy_orm</title><style>.edge>path:hover{stroke-width:8}</style>
<ellipse fill="#3131c4" stroke="black" cx="673.75" cy="-429.07" rx="55.17" ry="18"/>
<text text-anchor="middle" x="673.75" y="-426.57" font-family="Helvetica,sans-Serif" font-size="10.00" fill="#ffffff">sqlalchemy.orm</text>
</g>
<!-- sqlalchemy_orm&#45;&gt;app_api_api_v1_endpoints_login -->
<g id="edge24" class="edge">
<title>sqlalchemy_orm&#45;&gt;app_api_api_v1_endpoints_login</title><style>.edge>path:hover{stroke-width:8}</style>
<path fill="none" stroke="black" d="M672.22,-411C670.91,-392.44 669.79,-361.98 673.75,-336.09"/>
</g>
<!-- sqlalchemy_orm&#45;&gt;app_api_deps -->
<g id="edge25" class="edge">
<title>sqlalchemy_orm&#45;&gt;app_api_deps</title><style>.edge>path:hover{stroke-width:8}</style>
<path fill="none" stroke="black" d="M642.28,-414.16C602.41,-396.47 538.3,-367.77 533.75,-364.08 508.82,-343.89 514.55,-327.61 490.75,-306.1 456.59,-275.23 371.29,-287.62 401.75,-253.1"/>
</g>
</g>
</svg>
