<?xml version="1.0" encoding="UTF-8" standalone="no"?>
<!DOCTYPE svg PUBLIC "-//W3C//DTD SVG 1.1//EN"
 "http://www.w3.org/Graphics/SVG/1.1/DTD/svg11.dtd">
<!-- Generated by graphviz version 2.48.0 (0)
 -->
<!-- Title: G Pages: 1 -->
<svg width="654pt" height="638pt"
 viewBox="0.00 0.00 654.22 637.93" xmlns="http://www.w3.org/2000/svg" xmlns:xlink="http://www.w3.org/1999/xlink">
<g id="graph0" class="graph" transform="scale(1 1) rotate(0) translate(4 633.93)">
<title>G</title><style>.edge>path:hover{stroke-width:8}</style>
<polygon fill="white" stroke="transparent" points="-4,4 -4,-633.93 650.22,-633.93 650.22,4 -4,4"/>
<!-- app_api_api_v1_endpoints_users -->
<g id="node1" class="node">
<title>app_api_api_v1_endpoints_users</title><style>.edge>path:hover{stroke-width:8}</style>
<ellipse fill="#6b2e2e" stroke="black" cx="356.49" cy="-44.55" rx="48.17" ry="44.6"/>
<text text-anchor="middle" x="356.49" y="-64.05" font-family="Helvetica,sans-Serif" font-size="10.00" fill="#ffffff">app.</text>
<text text-anchor="middle" x="356.49" y="-53.05" font-family="Helvetica,sans-Serif" font-size="10.00" fill="#ffffff">api.</text>
<text text-anchor="middle" x="356.49" y="-42.05" font-family="Helvetica,sans-Serif" font-size="10.00" fill="#ffffff">api_v1.</text>
<text text-anchor="middle" x="356.49" y="-31.05" font-family="Helvetica,sans-Serif" font-size="10.00" fill="#ffffff">endpoints.</text>
<text text-anchor="middle" x="356.49" y="-20.05" font-family="Helvetica,sans-Serif" font-size="10.00" fill="#ffffff">users</text>
</g>
<!-- app_api_deps -->
<g id="node2" class="node">
<title>app_api_deps</title><style>.edge>path:hover{stroke-width:8}</style>
<ellipse fill="#723131" stroke="black" cx="356.49" cy="-180.1" rx="46.51" ry="18"/>
<text text-anchor="middle" x="356.49" y="-177.6" font-family="Helvetica,sans-Serif" font-size="10.00" fill="#ffffff">app.api.deps</text>
</g>
<!-- app_api_deps&#45;&gt;app_api_api_v1_endpoints_users -->
<g id="edge1" class="edge">
<title>app_api_deps&#45;&gt;app_api_api_v1_endpoints_users</title><style>.edge>path:hover{stroke-width:8}</style>
<path fill="none" stroke="black" d="M353.91,-161.99C352.94,-151.4 352.83,-137.68 356.49,-126.1"/>
</g>
<!-- app_core -->
<g id="node3" class="node">
<title>app_core</title><style>.edge>path:hover{stroke-width:8}</style>
<ellipse fill="#ce3b3b" stroke="black" cx="66.49" cy="-327.31" rx="34.96" ry="18"/>
<text text-anchor="middle" x="66.49" y="-324.81" font-family="Helvetica,sans-Serif" font-size="10.00" fill="#ffffff">app.core</text>
</g>
<!-- app_core&#45;&gt;app_api_api_v1_endpoints_users -->
<g id="edge2" class="edge">
<title>app_core&#45;&gt;app_api_api_v1_endpoints_users</title><style>.edge>path:hover{stroke-width:8}</style>
<path fill="none" stroke="black" d="M89.51,-313.83C117.33,-298.08 161.11,-270.91 166.49,-253.1"/>
<path fill="none" stroke="black" d="M166.49,-251.1C175.49,-221.31 139.86,-197.17 166.49,-181.1"/>
</g>
<!-- app_core&#45;&gt;app_api_deps -->
<g id="edge3" class="edge">
<title>app_core&#45;&gt;app_api_deps</title><style>.edge>path:hover{stroke-width:8}</style>
<path fill="none" stroke="black" d="M90.93,-314.51C96.97,-311.68 103.44,-308.72 109.49,-306.1 167.87,-280.77 191.71,-291.44 242.49,-253.1"/>
<path fill="none" stroke="black" d="M242.49,-251.1C267.69,-232.07 298.28,-213.51 321.42,-200.28"/>
<polygon fill="#ce3b3b" stroke="black" points="323.23,-203.28 330.21,-195.31 319.79,-197.19 323.23,-203.28"/>
</g>
<!-- app_utils -->
<g id="node8" class="node">
<title>app_utils</title><style>.edge>path:hover{stroke-width:8}</style>
<ellipse fill="#a44646" stroke="black" cx="103.49" cy="-252.1" rx="34.96" ry="18"/>
<text text-anchor="middle" x="103.49" y="-249.6" font-family="Helvetica,sans-Serif" font-size="10.00" fill="#ffffff">app.utils</text>
</g>
<!-- app_core&#45;&gt;app_utils -->
<g id="edge4" class="edge">
<title>app_core&#45;&gt;app_utils</title><style>.edge>path:hover{stroke-width:8}</style>
<path fill="none" stroke="black" d="M74.89,-309.7C79.52,-300.52 85.38,-288.93 90.59,-278.63"/>
<polygon fill="#ce3b3b" stroke="black" points="93.74,-280.15 95.13,-269.64 87.49,-276.99 93.74,-280.15"/>
</g>
<!-- app_core_config -->
<g id="node4" class="node">
<title>app_core_config</title><style>.edge>path:hover{stroke-width:8}</style>
<ellipse fill="#cc3333" stroke="black" cx="181.49" cy="-413.51" rx="32.55" ry="28.98"/>
<text text-anchor="middle" x="181.49" y="-422.01" font-family="Helvetica,sans-Serif" font-size="10.00" fill="#ffffff">app.</text>
<text text-anchor="middle" x="181.49" y="-411.01" font-family="Helvetica,sans-Serif" font-size="10.00" fill="#ffffff">core.</text>
<text text-anchor="middle" x="181.49" y="-400.01" font-family="Helvetica,sans-Serif" font-size="10.00" fill="#ffffff">config</text>
</g>
<!-- app_core_config&#45;&gt;app_api_api_v1_endpoints_users -->
<g id="edge5" class="edge">
<title>app_core_config&#45;&gt;app_api_api_v1_endpoints_users</title><style>.edge>path:hover{stroke-width:8}</style>
<path fill="none" stroke="black" d="M148.95,-410.68C101.49,-405.93 17.39,-388.96 3.49,-328.31"/>
<path fill="none" stroke="black" d="M3.49,-326.31C-18.18,-231.74 83.42,-231.23 166.49,-181.1"/>
<path fill="none" stroke="black" d="M166.49,-179.1C203.82,-156.12 343.27,-167.89 356.49,-126.1"/>
<path fill="none" stroke="black" d="M356.49,-125.1C359.07,-116.96 360.4,-108.11 360.94,-99.37"/>
<polygon fill="#cc3333" stroke="black" points="364.44,-99.31 361.23,-89.22 357.44,-99.11 364.44,-99.31"/>
</g>
<!-- app_core_config&#45;&gt;app_api_deps -->
<g id="edge6" class="edge">
<title>app_core_config&#45;&gt;app_api_deps</title><style>.edge>path:hover{stroke-width:8}</style>
<path fill="none" stroke="black" d="M207.16,-395.2C226.96,-379.47 249.85,-354.74 242.49,-328.31"/>
<path fill="none" stroke="black" d="M242.49,-326.31C233.77,-294.96 216.52,-272.7 242.49,-253.1"/>
</g>
<!-- app_core_config&#45;&gt;app_utils -->
<g id="edge7" class="edge">
<title>app_core_config&#45;&gt;app_utils</title><style>.edge>path:hover{stroke-width:8}</style>
<path fill="none" stroke="black" d="M3.49,-326.31C-3.75,-294.7 32.18,-274.94 62.97,-264.03"/>
<polygon fill="#cc3333" stroke="black" points="64.34,-267.26 72.73,-260.79 62.13,-260.62 64.34,-267.26"/>
</g>
<!-- app_crud -->
<g id="node5" class="node">
<title>app_crud</title><style>.edge>path:hover{stroke-width:8}</style>
<ellipse fill="#c24747" stroke="black" cx="305.49" cy="-327.31" rx="34.96" ry="18"/>
<text text-anchor="middle" x="305.49" y="-324.81" font-family="Helvetica,sans-Serif" font-size="10.00" fill="#ffffff">app.crud</text>
</g>
<!-- app_crud&#45;&gt;app_api_api_v1_endpoints_users -->
<g id="edge8" class="edge">
<title>app_crud&#45;&gt;app_api_api_v1_endpoints_users</title><style>.edge>path:hover{stroke-width:8}</style>
<path fill="none" stroke="black" d="M338.49,-251.1C364.87,-206.59 460.99,-223.6 431.49,-181.1"/>
<path fill="none" stroke="black" d="M431.49,-179.1C425.03,-169.79 421.51,-168.96 412.49,-162.1 388.95,-144.17 347.56,-154.3 356.49,-126.1"/>
</g>
<!-- app_crud&#45;&gt;app_api_deps -->
<g id="edge9" class="edge">
<title>app_crud&#45;&gt;app_api_deps</title><style>.edge>path:hover{stroke-width:8}</style>
<path fill="none" stroke="black" d="M311.82,-309.5C317.83,-294.31 327.54,-271.57 338.49,-253.1"/>
<path fill="none" stroke="black" d="M338.49,-251.1C346.17,-238.15 350.6,-221.97 353.15,-208.43"/>
<polygon fill="#c24747" stroke="black" points="356.65,-208.68 354.81,-198.24 349.74,-207.55 356.65,-208.68"/>
</g>
<!-- app_models -->
<g id="node6" class="node">
<title>app_models</title><style>.edge>path:hover{stroke-width:8}</style>
<ellipse fill="#c24747" stroke="black" cx="440.49" cy="-327.31" rx="43.62" ry="18"/>
<text text-anchor="middle" x="440.49" y="-324.81" font-family="Helvetica,sans-Serif" font-size="10.00" fill="#ffffff">app.models</text>
</g>
<!-- app_models&#45;&gt;app_api_api_v1_endpoints_users -->
<g id="edge10" class="edge">
<title>app_models&#45;&gt;app_api_api_v1_endpoints_users</title><style>.edge>path:hover{stroke-width:8}</style>
<path fill="none" stroke="black" d="M431.49,-251.1C422.31,-221.37 449.23,-206.65 431.49,-181.1"/>
</g>
<!-- app_models&#45;&gt;app_api_deps -->
<g id="edge11" class="edge">
<title>app_models&#45;&gt;app_api_deps</title><style>.edge>path:hover{stroke-width:8}</style>
<path fill="none" stroke="black" d="M440.09,-309.09C439.33,-294.02 437.24,-271.69 431.49,-253.1"/>
<path fill="none" stroke="black" d="M431.49,-251.1C425,-230.08 407.32,-213.06 390.76,-201.06"/>
<polygon fill="#c24747" stroke="black" points="392.5,-198 382.27,-195.25 388.54,-203.78 392.5,-198"/>
</g>
<!-- app_schemas -->
<g id="node7" class="node">
<title>app_schemas</title><style>.edge>path:hover{stroke-width:8}</style>
<ellipse fill="#c24747" stroke="black" cx="166.49" cy="-327.31" rx="47.86" ry="18"/>
<text text-anchor="middle" x="166.49" y="-324.81" font-family="Helvetica,sans-Serif" font-size="10.00" fill="#ffffff">app.schemas</text>
</g>
<!-- app_schemas&#45;&gt;app_api_api_v1_endpoints_users -->
<g id="edge12" class="edge">
<title>app_schemas&#45;&gt;app_api_api_v1_endpoints_users</title><style>.edge>path:hover{stroke-width:8}</style>
<path fill="none" stroke="black" d="M163.76,-309.33C161.97,-294.23 160.87,-271.71 166.49,-253.1"/>
</g>
<!-- app_schemas&#45;&gt;app_api_deps -->
<g id="edge13" class="edge">
<title>app_schemas&#45;&gt;app_api_deps</title><style>.edge>path:hover{stroke-width:8}</style>
<path fill="none" stroke="black" d="M181.22,-310.01C195.86,-294.34 219.39,-270.54 242.49,-253.1"/>
</g>
<!-- app_utils&#45;&gt;app_api_api_v1_endpoints_users -->
<g id="edge14" class="edge">
<title>app_utils&#45;&gt;app_api_api_v1_endpoints_users</title><style>.edge>path:hover{stroke-width:8}</style>
<path fill="none" stroke="black" d="M113.98,-234.65C125.08,-218.58 144.09,-194.61 166.49,-181.1"/>
</g>
<!-- fastapi -->
<g id="node9" class="node">
<title>fastapi</title><style>.edge>path:hover{stroke-width:8}</style>
<ellipse fill="#85c247" stroke="black" cx="428.49" cy="-413.51" rx="29.37" ry="18"/>
<text text-anchor="middle" x="428.49" y="-411.01" font-family="Helvetica,sans-Serif" font-size="10.00" fill="#000000">fastapi</text>
</g>
<!-- fastapi&#45;&gt;app_api_api_v1_endpoints_users -->
<g id="edge15" class="edge">
<title>fastapi&#45;&gt;app_api_api_v1_endpoints_users</title><style>.edge>path:hover{stroke-width:8}</style>
<path fill="none" stroke="black" d="M443.63,-397.93C456.91,-385.07 476.67,-365.74 493.49,-348.52 502.11,-339.7 503.82,-337.07 512.49,-328.31"/>
</g>
<!-- fastapi&#45;&gt;app_api_deps -->
<g id="edge16" class="edge">
<title>fastapi&#45;&gt;app_api_deps</title><style>.edge>path:hover{stroke-width:8}</style>
<path fill="none" stroke="black" d="M411.83,-398.6C405.2,-393.6 397.3,-388.28 389.49,-384.52 326.46,-354.2 261.24,-395.7 242.49,-328.31"/>
</g>
<!-- fastapi_encoders -->
<g id="node10" class="node">
<title>fastapi_encoders</title><style>.edge>path:hover{stroke-width:8}</style>
<ellipse fill="#80b34c" stroke="black" cx="551.49" cy="-499.72" rx="43.27" ry="21.43"/>
<text text-anchor="middle" x="551.49" y="-502.72" font-family="Helvetica,sans-Serif" font-size="10.00" fill="#000000">fastapi.</text>
<text text-anchor="middle" x="551.49" y="-491.72" font-family="Helvetica,sans-Serif" font-size="10.00" fill="#000000">encoders</text>
</g>
<!-- fastapi_encoders&#45;&gt;app_api_api_v1_endpoints_users -->
<g id="edge17" class="edge">
<title>fastapi_encoders&#45;&gt;app_api_api_v1_endpoints_users</title><style>.edge>path:hover{stroke-width:8}</style>
<path fill="none" stroke="black" d="M572.41,-481.05C589.24,-465.45 611.77,-441.12 622.49,-414.51"/>
<path fill="none" stroke="black" d="M622.49,-412.51C640.35,-368.21 655.77,-350.22 637.49,-306.1 624.74,-275.32 602.34,-281.22 584.49,-253.1"/>
</g>
<!-- pydantic -->
<g id="node11" class="node">
<title>pydantic</title><style>.edge>path:hover{stroke-width:8}</style>
<ellipse fill="#2fdbdb" stroke="black" cx="551.49" cy="-611.93" rx="34.96" ry="18"/>
<text text-anchor="middle" x="551.49" y="-609.43" font-family="Helvetica,sans-Serif" font-size="10.00" fill="#000000">pydantic</text>
</g>
<!-- pydantic&#45;&gt;app_api_api_v1_endpoints_users -->
<g id="edge18" class="edge">
<title>pydantic&#45;&gt;app_api_api_v1_endpoints_users</title><style>.edge>path:hover{stroke-width:8}</style>
<path fill="none" stroke="black" d="M551.49,-556.93C538.74,-531.88 588.3,-544.58 603.49,-520.93 629.46,-480.51 608.12,-460.36 622.49,-414.51"/>
</g>
<!-- pydantic&#45;&gt;app_api_deps -->
<g id="edge19" class="edge">
<title>pydantic&#45;&gt;app_api_deps</title><style>.edge>path:hover{stroke-width:8}</style>
<path fill="none" stroke="black" d="M242.49,-498.72C213.72,-474.1 252.64,-364.79 242.49,-328.31"/>
</g>
<!-- pydantic&#45;&gt;app_core_config -->
<g id="edge20" class="edge">
<title>pydantic&#45;&gt;app_core_config</title><style>.edge>path:hover{stroke-width:8}</style>
<path fill="none" stroke="black" d="M555.3,-593.78C556.82,-582.92 557.09,-568.92 551.49,-557.93"/>
<path fill="none" stroke="black" d="M551.49,-556.93C519.82,-494.73 295.53,-546.09 242.49,-500.72"/>
<path fill="none" stroke="black" d="M242.49,-498.72C226.06,-484.66 211.64,-465.31 200.96,-448.71"/>
<polygon fill="#2fdbdb" stroke="black" points="203.68,-446.46 195.42,-439.82 197.74,-450.16 203.68,-446.46"/>
</g>
<!-- pydantic&#45;&gt;fastapi_encoders -->
<g id="edge21" class="edge">
<title>pydantic&#45;&gt;fastapi_encoders</title><style>.edge>path:hover{stroke-width:8}</style>
<path fill="none" stroke="black" d="M551.49,-556.93C547.53,-549.14 546.33,-539.92 546.46,-531.22"/>
<polygon fill="#2fdbdb" stroke="black" points="549.97,-531.23 547.18,-521.01 542.99,-530.74 549.97,-531.23"/>
</g>
<!-- pydantic_networks -->
<g id="node12" class="node">
<title>pydantic_networks</title><style>.edge>path:hover{stroke-width:8}</style>
<ellipse fill="#53b6b6" stroke="black" cx="584.49" cy="-327.31" rx="43.68" ry="21.43"/>
<text text-anchor="middle" x="584.49" y="-330.31" font-family="Helvetica,sans-Serif" font-size="10.00" fill="#000000">pydantic.</text>
<text text-anchor="middle" x="584.49" y="-319.31" font-family="Helvetica,sans-Serif" font-size="10.00" fill="#000000">networks</text>
</g>
<!-- pydantic_networks&#45;&gt;app_api_api_v1_endpoints_users -->
<g id="edge22" class="edge">
<title>pydantic_networks&#45;&gt;app_api_api_v1_endpoints_users</title><style>.edge>path:hover{stroke-width:8}</style>
<path fill="none" stroke="black" d="M590,-306.05C593.04,-290.37 594.43,-268.76 584.49,-253.1"/>
</g>
<!-- sqlalchemy -->
<g id="node13" class="node">
<title>sqlalchemy</title><style>.edge>path:hover{stroke-width:8}</style>
<ellipse fill="#7f26d9" stroke="black" cx="518.49" cy="-413.51" rx="42.94" ry="18"/>
<text text-anchor="middle" x="518.49" y="-411.01" font-family="Helvetica,sans-Serif" font-size="10.00" fill="#ffffff">sqlalchemy</text>
</g>
<!-- sqlalchemy&#45;&gt;app_api_api_v1_endpoints_users -->
<g id="edge23" class="edge">
<title>sqlalchemy&#45;&gt;app_api_api_v1_endpoints_users</title><style>.edge>path:hover{stroke-width:8}</style>
<path fill="none" stroke="black" d="M510.71,-395.71C503.16,-376.6 495.17,-345.8 512.49,-328.31"/>
</g>
<!-- sqlalchemy&#45;&gt;app_api_deps -->
<g id="edge24" class="edge">
<title>sqlalchemy&#45;&gt;app_api_deps</title><style>.edge>path:hover{stroke-width:8}</style>
<path fill="none" stroke="black" d="M493.54,-398.65C485.02,-394.03 475.4,-388.94 466.49,-384.52 431.93,-367.37 411.24,-378.93 387.49,-348.52 355.58,-307.67 352.84,-244.23 354.28,-208.31"/>
<polygon fill="#7f26d9" stroke="black" points="357.79,-208.28 354.84,-198.1 350.8,-207.9 357.79,-208.28"/>
</g>
<!-- sqlalchemy_orm -->
<g id="node14" class="node">
<title>sqlalchemy_orm</title><style>.edge>path:hover{stroke-width:8}</style>
<ellipse fill="#7a31c4" stroke="black" cx="325.49" cy="-413.51" rx="55.17" ry="18"/>
<text text-anchor="middle" x="325.49" y="-411.01" font-family="Helvetica,sans-Serif" font-size="10.00" fill="#ffffff">sqlalchemy.orm</text>
</g>
<!-- sqlalchemy_orm&#45;&gt;app_api_api_v1_endpoints_users -->
<g id="edge25" class="edge">
<title>sqlalchemy_orm&#45;&gt;app_api_api_v1_endpoints_users</title><style>.edge>path:hover{stroke-width:8}</style>
<path fill="none" stroke="black" d="M356.72,-398.54C367.36,-393.91 379.39,-388.85 390.49,-384.52 435.68,-366.92 452.83,-374.95 493.49,-348.52 503.83,-341.8 503.82,-337.07 512.49,-328.31"/>
<path fill="none" stroke="black" d="M512.49,-326.31C521.17,-317.55 522.91,-314.95 531.49,-306.1 554.68,-282.18 602.34,-281.22 584.49,-253.1"/>
<path fill="none" stroke="black" d="M584.49,-251.1C544.42,-187.96 474.13,-242.53 431.49,-181.1"/>
</g>
<!-- sqlalchemy_orm&#45;&gt;app_api_deps -->
<g id="edge26" class="edge">
<title>sqlalchemy_orm&#45;&gt;app_api_deps</title><style>.edge>path:hover{stroke-width:8}</style>
<path fill="none" stroke="black" d="M300.08,-397.28C278.91,-382.73 250.91,-358.57 242.49,-328.31"/>
</g>
</g>
</svg>
