<?xml version="1.0" encoding="UTF-8" standalone="no"?>
<!DOCTYPE svg PUBLIC "-//W3C//DTD SVG 1.1//EN" "http://www.w3.org/Graphics/SVG/1.1/DTD/svg11.dtd">
<svg width="100%" height="100%" viewBox="0 0 460 148" version="1.1" xmlns="http://www.w3.org/2000/svg" xmlns:xlink="http://www.w3.org/1999/xlink" xml:space="preserve" xmlns:serif="http://www.serif.com/" style="fill-rule:evenodd;clip-rule:evenodd;stroke-linejoin:round;stroke-miterlimit:2;">
    <g transform="matrix(1,0,0,1,-466.168,-578.287)">
        <g transform="matrix(12.7538,0,0,12.7538,-5229.21,-2547.03)">
            <path d="M447.054,251.797L447.114,253.105L447.03,252.985C447.19,252.577 447.456,252.255 447.828,252.019C448.2,251.783 448.606,251.665 449.046,251.665C449.31,251.665 449.548,251.715 449.76,251.815C449.972,251.915 450.144,252.051 450.276,252.223C450.408,252.395 450.486,252.593 450.51,252.817L450.438,252.889C450.606,252.489 450.87,252.185 451.23,251.977C451.59,251.769 451.978,251.665 452.394,251.665C452.842,251.665 453.198,251.795 453.462,252.055C453.726,252.315 453.862,252.653 453.87,253.069L453.87,256.489L453.306,256.489L453.306,253.189C453.298,252.909 453.21,252.671 453.042,252.475C452.874,252.279 452.618,252.173 452.274,252.157C451.962,252.157 451.674,252.237 451.41,252.397C451.146,252.557 450.932,252.769 450.768,253.033C450.604,253.297 450.514,253.593 450.498,253.921L450.498,256.489L449.934,256.489L449.934,253.189C449.926,252.909 449.836,252.671 449.664,252.475C449.492,252.279 449.234,252.173 448.89,252.157C448.57,252.157 448.276,252.237 448.008,252.397C447.74,252.557 447.526,252.775 447.366,253.051C447.206,253.327 447.126,253.633 447.126,253.969L447.126,256.489L446.562,256.489L446.562,251.797L447.054,251.797Z" style="fill:white;fill-rule:nonzero;"/>
            <path d="M457.686,256.585C457.238,256.585 456.832,256.483 456.468,256.279C456.104,256.075 455.816,255.789 455.604,255.421C455.392,255.053 455.286,254.625 455.286,254.137C455.286,253.617 455.398,253.171 455.622,252.799C455.846,252.427 456.15,252.143 456.534,251.947C456.918,251.751 457.354,251.653 457.842,251.653C458.258,251.653 458.652,251.777 459.024,252.025C459.396,252.273 459.662,252.585 459.822,252.961L459.738,253.129L459.81,251.797L460.314,251.797L460.314,256.489L459.75,256.489L459.75,255.037L459.87,255.253C459.814,255.413 459.718,255.571 459.582,255.727C459.446,255.883 459.28,256.027 459.084,256.159C458.888,256.291 458.672,256.395 458.436,256.471C458.2,256.547 457.95,256.585 457.686,256.585ZM457.806,256.105C458.158,256.105 458.476,256.031 458.76,255.883C459.044,255.735 459.274,255.529 459.45,255.265C459.626,255.001 459.726,254.697 459.75,254.353L459.75,253.681C459.686,253.385 459.56,253.121 459.372,252.889C459.184,252.657 458.954,252.473 458.682,252.337C458.41,252.201 458.114,252.133 457.794,252.133C457.442,252.133 457.118,252.215 456.822,252.379C456.526,252.543 456.29,252.773 456.114,253.069C455.938,253.365 455.85,253.713 455.85,254.113C455.85,254.481 455.938,254.815 456.114,255.115C456.29,255.415 456.528,255.655 456.828,255.835C457.128,256.015 457.454,256.105 457.806,256.105Z" style="fill:white;fill-rule:nonzero;"/>
            <path d="M462.738,251.797L462.798,253.237L462.726,253.057C462.83,252.769 462.994,252.521 463.218,252.313C463.442,252.105 463.692,251.945 463.968,251.833C464.244,251.721 464.51,251.665 464.766,251.665L464.742,252.217C464.382,252.217 464.056,252.297 463.764,252.457C463.472,252.617 463.24,252.831 463.068,253.099C462.896,253.367 462.81,253.669 462.81,254.005L462.81,256.489L462.246,256.489L462.246,251.797L462.738,251.797Z" style="fill:white;fill-rule:nonzero;"/>
            <rect x="466.098" y="251.797" width="0.564" height="4.692" style="fill:white;fill-rule:nonzero;"/>
            <path d="M469.086,251.797L469.146,253.273L469.074,252.985C469.21,252.577 469.468,252.255 469.848,252.019C470.228,251.783 470.65,251.665 471.114,251.665C471.554,251.665 471.91,251.795 472.182,252.055C472.454,252.315 472.594,252.653 472.602,253.069L472.602,256.489L472.026,256.489L472.026,253.225C472.018,252.921 471.922,252.669 471.738,252.469C471.554,252.269 471.286,252.165 470.934,252.157C470.622,252.157 470.33,252.233 470.058,252.385C469.786,252.537 469.568,252.749 469.404,253.021C469.24,253.293 469.158,253.609 469.158,253.969L469.158,256.489L468.594,256.489L468.594,251.797L469.086,251.797Z" style="fill:white;fill-rule:nonzero;"/>
            <path d="M476.478,256.585C475.99,256.585 475.558,256.477 475.182,256.261C474.806,256.045 474.512,255.751 474.3,255.379C474.088,255.007 473.982,254.589 473.982,254.125C473.982,253.669 474.094,253.253 474.318,252.877C474.542,252.501 474.844,252.201 475.224,251.977C475.604,251.753 476.026,251.641 476.49,251.641C477.05,251.641 477.52,251.805 477.9,252.133C478.28,252.461 478.554,252.889 478.722,253.417L474.618,255.001L474.45,254.593L478.206,253.129L478.086,253.297C477.95,252.977 477.744,252.701 477.468,252.469C477.192,252.237 476.854,252.121 476.454,252.121C476.094,252.121 475.77,252.209 475.482,252.385C475.194,252.561 474.964,252.797 474.792,253.093C474.62,253.389 474.534,253.725 474.534,254.101C474.534,254.453 474.616,254.781 474.78,255.085C474.944,255.389 475.174,255.633 475.47,255.817C475.766,256.001 476.106,256.093 476.49,256.093C476.746,256.093 476.992,256.045 477.228,255.949C477.464,255.853 477.674,255.729 477.858,255.577L478.146,255.985C477.922,256.161 477.664,256.305 477.372,256.417C477.08,256.529 476.782,256.585 476.478,256.585Z" style="fill:white;fill-rule:nonzero;"/>
            <path d="M480.534,251.797L480.594,253.237L480.522,253.057C480.626,252.769 480.79,252.521 481.014,252.313C481.238,252.105 481.488,251.945 481.764,251.833C482.04,251.721 482.306,251.665 482.562,251.665L482.538,252.217C482.178,252.217 481.852,252.297 481.56,252.457C481.268,252.617 481.036,252.831 480.864,253.099C480.692,253.367 480.606,253.669 480.606,254.005L480.606,256.489L480.042,256.489L480.042,251.797L480.534,251.797Z" style="fill:white;fill-rule:nonzero;"/>
        </g>
        <g transform="matrix(1,0,0,1,185.766,426.874)">
            <g transform="matrix(0.613975,0,0,0.613975,289.728,142.13)">
                <path d="M396.729,76.973L401.877,106.014L430.919,111.163L401.877,116.311L396.729,145.353L391.58,116.311L362.539,111.163L391.58,106.014L396.729,76.973Z" style="fill:rgb(139,190,178);"/>
            </g>
            <g transform="matrix(0.544128,0.544128,-0.544128,0.544128,377.925,-65.9768)">
                <path d="M396.729,76.973L401.877,106.014L430.919,111.163L401.877,116.311L396.729,145.353L391.58,116.311L362.539,111.163L391.58,106.014L396.729,76.973Z" style="fill:rgb(139,190,178);"/>
            </g>
        </g>
        <g transform="matrix(1,0,0,1,185.766,426.874)">
            <g transform="matrix(1,0,0,1,-69.7217,-191.727)">
                <g transform="matrix(0.260584,0,0,0.260584,457.442,352.52)">
                    <path d="M396.729,76.973L401.877,106.014L430.919,111.163L401.877,116.311L396.729,145.353L391.58,116.311L362.539,111.163L391.58,106.014L396.729,76.973Z" style="fill:white;"/>
                </g>
                <g transform="matrix(0.23094,0.23094,-0.23094,0.23094,494.874,264.195)">
                    <path d="M396.729,76.973L401.877,106.014L430.919,111.163L401.877,116.311L396.729,145.353L391.58,116.311L362.539,111.163L391.58,106.014L396.729,76.973Z" style="fill:white;"/>
                </g>
            </g>
            <g transform="matrix(1,0,0,1,-110.472,-205.661)">
                <g transform="matrix(0.260584,0,0,0.260584,457.442,352.52)">
                    <path d="M396.729,76.973L401.877,106.014L430.919,111.163L401.877,116.311L396.729,145.353L391.58,116.311L362.539,111.163L391.58,106.014L396.729,76.973Z" style="fill:white;"/>
                </g>
                <g transform="matrix(0.23094,0.23094,-0.23094,0.23094,494.874,264.195)">
                    <path d="M396.729,76.973L401.877,106.014L430.919,111.163L401.877,116.311L396.729,145.353L391.58,116.311L362.539,111.163L391.58,106.014L396.729,76.973Z" style="fill:white;"/>
                </g>
            </g>
            <g transform="matrix(1,0,0,1,-165.307,-198.049)">
                <g transform="matrix(0.260584,0,0,0.260584,457.442,352.52)">
                    <path d="M396.729,76.973L401.877,106.014L430.919,111.163L401.877,116.311L396.729,145.353L391.58,116.311L362.539,111.163L391.58,106.014L396.729,76.973Z" style="fill:white;"/>
                </g>
                <g transform="matrix(0.23094,0.23094,-0.23094,0.23094,494.874,264.195)">
                    <path d="M396.729,76.973L401.877,106.014L430.919,111.163L401.877,116.311L396.729,145.353L391.58,116.311L362.539,111.163L391.58,106.014L396.729,76.973Z" style="fill:white;"/>
                </g>
            </g>
            <g transform="matrix(1,0,0,1,-204.204,-170.156)">
                <g transform="matrix(0.260584,0,0,0.260584,457.442,352.52)">
                    <path d="M396.729,76.973L401.877,106.014L430.919,111.163L401.877,116.311L396.729,145.353L391.58,116.311L362.539,111.163L391.58,106.014L396.729,76.973Z" style="fill:white;"/>
                </g>
                <g transform="matrix(0.23094,0.23094,-0.23094,0.23094,494.874,264.195)">
                    <path d="M396.729,76.973L401.877,106.014L430.919,111.163L401.877,116.311L396.729,145.353L391.58,116.311L362.539,111.163L391.58,106.014L396.729,76.973Z" style="fill:white;"/>
                </g>
            </g>
            <g transform="matrix(1,0,0,1,-226.628,-196.127)">
                <g transform="matrix(0.260584,0,0,0.260584,457.442,352.52)">
                    <path d="M396.729,76.973L401.877,106.014L430.919,111.163L401.877,116.311L396.729,145.353L391.58,116.311L362.539,111.163L391.58,106.014L396.729,76.973Z" style="fill:white;"/>
                </g>
                <g transform="matrix(0.23094,0.23094,-0.23094,0.23094,494.874,264.195)">
                    <path d="M396.729,76.973L401.877,106.014L430.919,111.163L401.877,116.311L396.729,145.353L391.58,116.311L362.539,111.163L391.58,106.014L396.729,76.973Z" style="fill:white;"/>
                </g>
            </g>
            <g transform="matrix(1,0,0,1,-177.461,-221.165)">
                <g transform="matrix(0.260584,0,0,0.260584,457.442,352.52)">
                    <path d="M396.729,76.973L401.877,106.014L430.919,111.163L401.877,116.311L396.729,145.353L391.58,116.311L362.539,111.163L391.58,106.014L396.729,76.973Z" style="fill:white;"/>
                </g>
                <g transform="matrix(0.23094,0.23094,-0.23094,0.23094,494.874,264.195)">
                    <path d="M396.729,76.973L401.877,106.014L430.919,111.163L401.877,116.311L396.729,145.353L391.58,116.311L362.539,111.163L391.58,106.014L396.729,76.973Z" style="fill:white;"/>
                </g>
            </g>
        </g>
    </g>
</svg>
